<?xml version="1.0" encoding="UTF-8"?>
<svg id="Layer_1" data-name="Layer 1" xmlns="http://www.w3.org/2000/svg" version="1.1" viewBox="0 0 871.71 895.36">
  <defs>
    <style>
      .cls-1 {
        fill: #009444;
      }

      .cls-1, .cls-2 {
        stroke-width: 0px;
      }

      .cls-2 {
        fill: #f15a29;
      }
    </style>
  </defs>
  <path class="cls-2" d="M241.61,271.9"/>
  <polygon class="cls-1" points="218.49 79.82 218.49 291.03 287.69 291.03 287.69 79.82 274.05 79.82 218.49 79.82"/>
  <g>
    <path class="cls-1" d="M538.07,79.82H218.49v211.22h108.36v503.22c0,19.45,15.77,35.22,35.22,35.22h140.77c19.45,0,35.22-15.77,35.22-35.22v-503.22h108.39V79.82h-108.39Z"/>
    <path class="cls-2" d="M181.52,291.03V79.82h-80.61c-23.9,0-43.28,19.38-43.28,43.28v244.92c0,17.56,20.01,27.62,34.1,17.14l95.78-71.22v-22.9h-6Z"/>
    <rect class="cls-2" x="181.52" y="79.82" width="6" height="211.22"/>
    <path class="cls-2" d="M764.01,79.82h-36.55c19.45,0,35.22,15.77,35.22,35.22v140.77c0,19.45-15.77,35.22-35.22,35.22h-49.3v23.47l89.3,66.4c16.46,12.24,39.82.49,39.82-20.01V123.09c0-23.9-19.38-43.28-43.28-43.28Z"/>
    <path class="cls-2" d="M727.46,291.03c19.45,0,35.22-15.77,35.22-35.22V115.04c0-19.45-15.77-35.22-35.22-35.22h-49.3v211.22h49.3Z"/>
  </g>
</svg>